# File created by Blade
# Date/Time:  Tue Jan 27 20:07:51 2015
# Frame Rate: 120.000 fps
#------------------------------------------------------
:FULLY-SPECIFIED
:DEGREES
1795
root 6.462308 32.504218 -4.999550 -4.959042 -17.743914 -7.669363
Spine 7.156107 11.414645 0.660744
Head 30.373407 -15.950980 1.157261
LeftShoulder -15.142162 1.480733 30.739882
LeftArm -10.466922 -21.730835 -74.032248
LeftForeArm -17.600408 -0.000000 118.263829
LeftHand 11.263324 -0.000000 0.950222
LeftHandThumb1 -26.253704 0.000000 33.147579
RightShoulder -19.640157 -17.989858 -19.595466
RightArm 11.448464 -19.860351 88.661885
RightForeArm -16.425087 -0.000000 22.105981
RightHand 18.211124 -0.000000 -0.113309
RightHandThumb1 -24.326973 -0.000000 -32.862282
LeftUpLeg 12.132595 2.868089 -2.734994
LeftLeg -1.795174 -0.000000 0.000000
LeftFoot -15.837731 14.626279 -15.936209
LeftToeBase 21.886650 -0.000000 -0.000000
RightUpLeg -42.799421 -11.893119 7.349752
RightLeg 89.362853 -0.000000 -0.000000
RightFoot 28.921096 -24.366207 7.099341
RightToeBase 17.812408 -0.000000 -0.000000
1796
root 6.463671 32.499490 -4.995573 -4.990136 -17.736402 -7.612329
Spine 7.114675 11.420382 0.594857
Head 30.403489 -15.872153 1.159855
LeftShoulder -15.131793 1.476325 30.773382
LeftArm -10.486517 -21.700906 -74.116156
LeftForeArm -17.570091 -0.000000 118.353082
LeftHand 11.011860 -0.000000 0.796291
LeftHandThumb1 -26.253704 0.000000 33.147579
RightShoulder -19.656083 -17.992116 -19.610750
RightArm 11.511079 -19.932020 88.627605
RightForeArm -16.398665 -0.000000 21.994249
RightHand 18.230196 -0.000000 -0.072972
RightHandThumb1 -24.326973 -0.000000 -32.862282
LeftUpLeg 12.176414 2.885145 -2.781344
LeftLeg -1.833000 -0.000000 0.000000
LeftFoot -15.786117 14.528310 -15.900938
LeftToeBase 21.777562 -0.000000 -0.000000
RightUpLeg -42.774733 -11.994926 7.497540
RightLeg 90.951144 -0.000000 -0.000000
RightFoot 29.023442 -24.498569 7.328757
RightToeBase 19.307759 -0.000000 -0.000000
1797
root 6.463719 32.494908 -4.988984 -5.019741 -17.783665 -7.549370
Spine 7.059682 11.467761 0.521830
Head 30.436762 -15.760576 1.183198
LeftShoulder -15.153868 1.509030 30.814244
LeftArm -10.473185 -21.670598 -74.225213
LeftForeArm -17.548565 0.000000 118.418626
LeftHand 11.080530 -0.000000 0.909326
LeftHandThumb1 -26.253704 0.000000 33.147579
RightShoulder -19.651387 -17.995912 -19.631438
RightArm 11.541995 -19.952805 88.614825
RightForeArm -16.406297 -0.000000 21.919778
RightHand 18.184178 -0.000000 -0.052934
RightHandThumb1 -24.326973 -0.000000 -32.862282
LeftUpLeg 12.235914 2.953768 -2.824243
LeftLeg -1.886554 -0.000000 0.000000
LeftFoot -15.759389 14.404337 -15.969675
LeftToeBase 22.342026 -0.000000 -0.000000
RightUpLeg -42.724389 -12.041769 7.617463
RightLeg 92.451143 -0.000000 -0.000000
RightFoot 29.166455 -24.405295 7.483638
RightToeBase 19.074476 -0.000000 -0.000000
1798
root 6.467127 32.490853 -4.984259 -5.044854 -17.801803 -7.483883
Spine 7.012735 11.498887 0.460827
Head 30.457084 -15.674121 1.185102
LeftShoulder -15.163152 1.548102 30.832430
LeftArm -10.442221 -21.661070 -74.364996
LeftForeArm -17.564599 -0.000000 118.492343
LeftHand 11.052238 -0.000000 1.034705
LeftHandThumb1 -26.253704 0.000000 33.147579
RightShoulder -19.660496 -17.989775 -19.654361
RightArm 11.559859 -19.950788 88.599092
RightForeArm -16.412839 -0.000000 21.866689
RightHand 18.158063 0.000000 -0.038172
RightHandThumb1 -24.326973 -0.000000 -32.862282
LeftUpLeg 12.266096 2.983477 -2.886205
LeftLeg -1.923675 -0.000000 0.000000
LeftFoot -15.746539 14.448696 -15.960090
LeftToeBase 22.027552 -0.000000 -0.000000
RightUpLeg -42.670467 -12.174763 7.751327
RightLeg 93.822991 -0.000000 -0.000000
RightFoot 29.543345 -24.285160 7.218429
RightToeBase 18.318821 -0.000000 -0.000000
1799
root 6.473169 32.486277 -4.982192 -5.055021 -17.792461 -7.414637
Spine 6.965774 11.498093 0.398897
Head 30.435165 -15.572779 1.194920
LeftShoulder -15.188889 1.548593 30.833843
LeftArm -10.446981 -21.671242 -74.448313
LeftForeArm -17.460131 0.000000 118.551773
LeftHand 10.862127 -0.000000 0.869535
LeftHandThumb1 -26.253704 0.000000 33.147579
RightShoulder -19.660511 -17.961279 -19.684758
RightArm 11.541672 -19.922137 88.591370
RightForeArm -16.380030 -0.000000 21.856026
RightHand 18.145449 0.000000 -0.090047
RightHandThumb1 -24.326973 -0.000000 -32.862282
LeftUpLeg 12.252793 2.937004 -2.971558
LeftLeg -1.909912 -0.000000 0.000000
LeftFoot -15.713776 14.464524 -15.878306
LeftToeBase 21.878516 -0.000000 -0.000000
RightUpLeg -42.631387 -12.339218 7.860678
RightLeg 95.081305 -0.000000 -0.000000
RightFoot 29.683839 -24.410141 7.207460
RightToeBase 18.723882 -0.000000 -0.000000
1800
root 6.480101 32.481965 -4.980417 -5.068573 -17.789878 -7.342995
Spine 6.925393 11.501095 0.342828
Head 30.412044 -15.459736 1.190983
LeftShoulder -15.205566 1.503626 30.817543
LeftArm -10.520811 -21.705103 -74.437719
LeftForeArm -17.378307 -0.000000 118.616031
LeftHand 11.139587 -0.000000 0.680107
LeftHandThumb1 -26.253704 0.000000 33.147579
RightShoulder -19.615104 -17.935444 -19.727617
RightArm 11.487001 -19.825934 88.603779
RightForeArm -16.383786 0.000000 21.895049
RightHand 18.149572 0.000000 -0.080830
RightHandThumb1 -24.326973 -0.000000 -32.862282
LeftUpLeg 12.236343 2.912069 -3.051907
LeftLeg -1.903714 -0.000000 0.000000
LeftFoot -15.746466 14.451173 -16.007046
LeftToeBase 22.044448 -0.000000 -0.000000
RightUpLeg -42.559621 -12.463693 7.923369
RightLeg 96.225451 -0.000000 -0.000000
RightFoot 29.635051 -24.595912 7.772439
RightToeBase 20.829169 -0.000000 -0.000000
1801
root 6.487404 32.477309 -4.980040 -5.068722 -17.770022 -7.292094
Spine 6.884650 11.484703 0.319919
Head 30.373706 -15.342251 1.173530
LeftShoulder -15.226909 1.492639 30.772907
LeftArm -10.544395 -21.712783 -74.451959
LeftForeArm -17.381190 -0.000000 118.675839
LeftHand 11.238879 -0.000000 0.854244
LeftHandThumb1 -26.253704 0.000000 33.147579
RightShoulder -19.589168 -17.932053 -19.773414
RightArm 11.452027 -19.699566 88.611259
RightForeArm -16.365615 -0.000000 21.982161
RightHand 18.109669 0.000000 -0.013052
RightHandThumb1 -24.326973 -0.000000 -32.862282
LeftUpLeg 12.196961 2.906179 -3.112283
LeftLeg -1.872939 -0.000000 0.000000
LeftFoot -15.725357 14.406713 -15.959622
LeftToeBase 21.996484 -0.000000 -0.000000
RightUpLeg -42.495109 -12.603620 7.990026
RightLeg 97.280153 -0.000000 -0.000000
RightFoot 29.447629 -24.854319 8.168746
RightToeBase 20.798906 -0.000000 -0.000000
1802
root 6.493559 32.474379 -4.980792 -5.066445 -17.752609 -7.255982
Spine 6.851290 11.487132 0.310233
Head 30.334245 -15.248064 1.172017
LeftShoulder -15.227910 1.480758 30.723682
LeftArm -10.554300 -21.669572 -74.467322
LeftForeArm -17.068921 -0.000000 118.759567
LeftHand 11.019036 -0.000000 1.178254
LeftHandThumb1 -26.253704 0.000000 33.147579
RightShoulder -19.574068 -17.946395 -19.796671
RightArm 11.452753 -19.636068 88.585290
RightForeArm -16.370822 -0.000000 22.027628
RightHand 18.156639 -0.000000 -0.046862
RightHandThumb1 -24.326973 -0.000000 -32.862282
LeftUpLeg 12.152889 2.852961 -3.168362
LeftLeg -1.807797 -0.000000 0.000000
LeftFoot -15.737007 14.430666 -15.885293
LeftToeBase 21.980290 -0.000000 -0.000000
RightUpLeg -42.420972 -12.730097 8.072579
RightLeg 98.202465 -0.000000 -0.000000
RightFoot 29.439747 -25.074693 8.119349
RightToeBase 19.405147 -0.000000 -0.000000
1803
root 6.499150 32.472129 -4.983188 -5.053128 -17.747668 -7.224799
Spine 6.812018 11.519050 0.305053
Head 30.300495 -15.199261 1.161415
LeftShoulder -15.209560 1.469623 30.672920
LeftArm -10.608998 -21.776411 -74.420210
LeftForeArm -17.407515 0.000000 118.810836
LeftHand 10.947460 -0.000000 0.398029
LeftHandThumb1 -26.253704 0.000000 33.147579
RightShoulder -19.573665 -17.977793 -19.806837
RightArm 11.470433 -19.607688 88.544888
RightForeArm -16.322928 0.000000 22.078182
RightHand 18.172058 -0.000000 0.068844
RightHandThumb1 -24.326973 -0.000000 -32.862282
LeftUpLeg 12.101873 2.793413 -3.215067
LeftLeg -1.773531 -0.000000 0.000000
LeftFoot -15.795169 14.375003 -16.090680
LeftToeBase 21.992340 -0.000000 -0.000000
RightUpLeg -42.339730 -12.838108 8.154726
RightLeg 98.998883 -0.000000 -0.000000
RightFoot 29.287586 -25.311811 8.248420
RightToeBase 19.084524 -0.000000 -0.000000
1804
root 6.507667 32.469551 -4.988104 -5.019217 -17.726165 -7.202789
Spine 6.763181 11.524549 0.319384
Head 30.244041 -15.141849 1.140448
LeftShoulder -15.197297 1.448189 30.629400
LeftArm -10.675691 -21.784930 -74.394919
LeftForeArm -17.537227 -0.000000 118.847355
LeftHand 10.810855 -0.000000 0.294346
LeftHandThumb1 -26.253704 0.000000 33.147579
RightShoulder -19.565450 -17.989178 -19.836916
RightArm 11.482785 -19.606261 88.493287
RightForeArm -16.348278 -0.000000 22.123357
RightHand 18.161130 -0.000000 -0.149670
RightHandThumb1 -24.326973 -0.000000 -32.862282
LeftUpLeg 12.019133 2.714819 -3.262653
LeftLeg -1.727241 -0.000000 0.000000
LeftFoot -15.755280 14.396477 -16.001907
LeftToeBase 21.864767 -0.000000 -0.000000
RightUpLeg -42.269796 -12.932178 8.203079
RightLeg 99.644922 -0.000000 -0.000000
RightFoot 29.228195 -25.459364 8.386640
RightToeBase 21.374093 -0.000000 -0.000000
1805
root 6.516205 32.466829 -4.992059 -4.993475 -17.730881 -7.165053
Spine 6.716331 11.558801 0.312601
Head 30.191927 -15.067771 1.130102
LeftShoulder -15.198160 1.497342 30.606311
LeftArm -10.657156 -21.770742 -74.416621
LeftForeArm -17.633093 -0.000000 118.856502
LeftHand 11.056184 -0.000000 0.483275
LeftHandThumb1 -26.253704 0.000000 33.147579
RightShoulder -19.557675 -18.013582 -19.860767
RightArm 11.520964 -19.637002 88.425951
RightForeArm -16.322749 -0.000000 22.152265
RightHand 18.153341 -0.000000 -0.198167
RightHandThumb1 -24.326973 -0.000000 -32.862282
LeftUpLeg 11.950953 2.661296 -3.313398
LeftLeg -1.668687 -0.000000 0.000000
LeftFoot -15.865540 14.449228 -16.077120
LeftToeBase 21.949898 -0.000000 -0.000000
RightUpLeg -42.220078 -12.983797 8.219731
RightLeg 100.250330 -0.000000 -0.000000
RightFoot 29.105238 -25.797214 8.539697
RightToeBase 18.936064 -0.000000 -0.000000
1806
root 6.523430 32.464383 -4.996192 -4.965327 -17.739127 -7.134094
Spine 6.663821 11.615932 0.313104
Head 30.155807 -15.012327 1.126763
LeftShoulder -15.164649 1.549143 30.604046
LeftArm -10.657131 -21.752679 -74.442837
LeftForeArm -17.693377 -0.000000 118.840603
LeftHand 11.186080 -0.000000 0.528394
LeftHandThumb1 -26.253704 0.000000 33.147579
RightShoulder -19.562312 -18.024050 -19.887832
RightArm 11.532513 -19.640787 88.375137
RightForeArm -16.342577 -0.000000 22.178689
RightHand 18.172094 -0.000000 -0.123864
RightHandThumb1 -24.326973 -0.000000 -32.862282
LeftUpLeg 11.891430 2.594446 -3.362079
LeftLeg -1.641991 -0.000000 0.000000
LeftFoot -15.889345 14.430239 -16.143038
LeftToeBase 22.300234 -0.000000 -0.000000
RightUpLeg -42.164485 -13.013330 8.241600
RightLeg 100.721883 -0.000000 -0.000000
RightFoot 28.930776 -26.236591 8.761772
RightToeBase 16.907685 -0.000000 -0.000000
1807
root 6.530537 32.462687 -5.000569 -4.933577 -17.768881 -7.104738
Spine 6.606367 11.670319 0.319030
Head 30.130225 -14.940482 1.105842
LeftShoulder -15.150158 1.593744 30.617336
LeftArm -10.672386 -21.701351 -74.497966
LeftForeArm -17.843285 0.000000 118.790360
LeftHand 11.486002 0.000000 0.830978
LeftHandThumb1 -26.253704 0.000000 33.147579
RightShoulder -19.550705 -18.023777 -19.919307
RightArm 11.555722 -19.639647 88.320665
RightForeArm -16.405598 -0.000000 22.179244
RightHand 18.258211 -0.000000 -0.128279
RightHandThumb1 -24.326973 -0.000000 -32.862282
LeftUpLeg 11.846857 2.534560 -3.408837
LeftLeg -1.649326 -0.000000 0.000000
LeftFoot -15.917334 14.460600 -16.218558
LeftToeBase 22.464278 -0.000000 -0.000000
RightUpLeg -42.101057 -13.016591 8.232571
RightLeg 101.062188 -0.000000 -0.000000
RightFoot 28.673893 -26.724491 9.363598
RightToeBase 18.380699 -0.000000 -0.000000
